# xmcd
#
# Track frame offsets:
#	187
#	19460
#	37910
#	55570
#	77775
#	100907
#
# Disc length: 1619 seconds
#
# Revision: 1
# Processed by: cddbd v1.5.1PL0 Copyright (c) Steve Scherf et al.
# Submitted via: CDex 1.50Beta5
#
DISCID=3f065106
DTITLE=鈴木早智子 - Mode
DYEAR=1900
DGENRE=Pop
TTITLE0=ラスト・ダンスは頬よせて
TTITLE1=1999年の退屈
TTITLE2=ハリウッドな恋にして
TTITLE3=最後の楽園
TTITLE4=TRANSFER
TTITLE5=不実な仔猫たち
EXTD=
EXTT0=
EXTT1=
EXTT2=
EXTT3=
EXTT4=
EXTT5=
PLAYORDER=
